<svg width="36" height="36" xmlns="http://www.w3.org/2000/svg">
  <path d="M18 4c.558 0 1 .442 1 1s-.442 1-1 1-1-.442-1-1 .442-1 1-1zm-6.104 1h12.206l2.642 11.444c-.345-.208-.69-.448-1.144-.448-.592 0-.978.37-1.274.621-.296.252-.502.383-.627.383a.525.525 0 01-.25-.096 3.325 3.325 0 01-.379-.283c-.296-.249-.68-.615-1.27-.615-.588 0-.974.364-1.27.613-.297.248-.504.38-.63.38-.127 0-.334-.13-.63-.376-.297-.246-.683-.608-1.27-.608-.147 0-.281.023-.404.061-.37.114-.643.363-.866.547a3.351 3.351 0 01-.378.282.542.542 0 01-.252.096c-.127 0-.335-.131-.631-.377-.297-.246-.683-.608-1.27-.608s-.971.363-1.267.61c-.297.246-.504.375-.631.375-.124 0-.333-.131-.63-.381-.295-.25-.68-.617-1.27-.617-.454 0-.8.238-1.145.445zM18 17.016c.105 0 .28.109.5.28v1.673h-1v-1.674c.087-.067.18-.142.248-.184a.542.542 0 01.252-.096zM16.7 20h2.607c.493.307.76.63.879 1.033.126.43.107.975-.018 1.623-.227 1.18-.77 2.712-1.074 4.344h-2.201c-.293-1.628-.811-3.156-1.026-4.338-.118-.65-.135-1.2-.012-1.633.116-.405.377-.725.844-1.029zm-.2 8h3c.286 0 .5.214.5.5 0 .286-.214.5-.5.5h-3a.488.488 0 01-.5-.5c0-.286.214-.5.5-.5zM15 30h6c.563 0 1 .437 1 1v1h-8v-1c0-.563.437-1 1-1z"/>
</svg>
